<?xml version="1.0" encoding="UTF-8" standalone="no"?>
<!DOCTYPE svg PUBLIC "-//W3C//DTD SVG 1.1//EN" "http://www.w3.org/Graphics/SVG/1.1/DTD/svg11.dtd">
<svg xmlns="http://www.w3.org/2000/svg" version="1.1" viewBox="0 0 512 512">
<g>
<path fill="#000000" d="
  M 85.86 115.64
  Q 109.93 91.38 134.11 67.23
  Q 139.77 61.58 143.36 60.05
  C 156.47 54.45 169.74 68.10 163.80 81.16
  Q 162.41 84.21 157.65 88.98
  Q 128.64 117.99 99.64 146.98
  C 91.24 155.37 82.50 158.16 73.15 148.96
  Q 59.51 135.53 52.81 128.68
  C 41.04 116.66 53.15 96.71 69.36 102.36
  C 74.86 104.27 80.63 111.20 85.15 115.65
  A 0.51 0.50 -45.0 0 0 85.86 115.64
  Z"
/>
<rect fill="#000000" x="218.82" y="101.28" width="245.06" height="31.96" rx="15.75"/>
<path fill="#000000" d="
  M 54.74 280.02
  Q 51.48 276.90 50.69 275.53
  C 42.71 261.63 55.12 246.28 70.30 252.11
  C 75.37 254.06 80.97 261.12 85.07 264.89
  A 0.52 0.52 43.8 0 0 85.79 264.88
  Q 110.60 239.97 135.58 215.35
  C 137.71 213.25 139.46 210.99 142.21 209.79
  C 151.77 205.63 161.90 209.90 164.69 219.87
  C 166.73 227.19 163.67 232.22 158.25 237.63
  Q 128.75 267.12 99.26 296.62
  C 90.64 305.25 82.44 307.04 72.98 298.16
  C 66.72 292.29 60.93 285.94 54.74 280.02
  Z"
/>
<rect fill="#000000" x="218.81" y="250.76" width="245.08" height="31.96" rx="15.75"/>
<path fill="#000000" d="
  M 74.76 448.98
  Q 58.61 433.68 52.84 427.40
  C 38.08 411.36 60.81 390.17 75.48 404.78
  Q 82.93 412.21 85.16 414.24
  A 0.52 0.52 43.4 0 0 85.88 414.22
  Q 110.74 389.40 135.52 364.61
  Q 140.31 359.81 143.37 358.56
  C 159.87 351.79 172.58 372.67 160.03 385.28
  Q 128.85 416.60 97.54 447.79
  C 91.07 454.23 81.62 455.48 74.76 448.98
  Z"
/>
<rect fill="#000000" x="218.81" y="400.02" width="245.08" height="31.96" rx="15.75"/>
</g>
</svg>
