<?xml version="1.0" encoding="utf-8"?>
<!-- Generator: Adobe Illustrator 25.0.0, SVG Export Plug-In . SVG Version: 6.00 Build 0)  -->
<svg version="1.1" id="Layer_1" xmlns="http://www.w3.org/2000/svg" xmlns:xlink="http://www.w3.org/1999/xlink" x="0px" y="0px"
	 viewBox="0 0 1209 805" style="enable-background:new 0 0 1209 805;" xml:space="preserve">
<g>
	<path d="M603.8,225c-74.1,51.5-148.3,103-222.5,154.4c-3.4,2.4-6,3.8-7.6,4.3c-9.8,2.8-17.9-8.3-12.4-16.9c0.9-1.4,2.6-3,5.2-4.8
		c76.4-53.1,152.9-106.1,229.3-159.1c5.8-4,10.3-4.6,16-0.6c76.8,53.2,153.6,106.5,230.3,159.8c2.5,1.8,4.2,3.3,5.1,4.7
		c5.8,9-2.2,18.6-12,17.3c-1.6-0.2-3.9-1.4-6.9-3.5c-74.5-52-149.1-103.8-223.6-155.6C604.4,224.9,604.1,224.9,603.8,225z"/>
	<path d="M628.2,515h-48c-0.3,0-0.5,0.2-0.5,0.5c0,24.3,0,48.5,0,72.8c0,12.2-2.3,17.4-15,17.4c-39.7,0-79.3,0-119,0
		c-9.4,0-12.3-6.2-12.3-14.7c0-71.9,0-143.7,0-215.6c0-3.5,0.5-6.1,1.4-7.9c4.4-8.5,17-7.8,20.5,1.2c0.6,1.5,0.9,3.8,0.9,6.8
		c0,69,0,137.9,0,206.9c0,0.3,0.2,0.5,0.5,0.5l0,0h99.8c0.2,0,0.5-0.2,0.5-0.5c0.1-25.3,0.1-50.6,0-75.8c0-10.6,4.1-14.4,14.4-14.4
		c21.6,0,43.3,0,64.9,0c10.4,0,15.2,3.1,15.2,13.7c0,25.5,0,51,0,76.5c0,0.3,0.2,0.5,0.5,0.5l0,0h99.8c0.3,0,0.5-0.2,0.5-0.5
		c0-68.5,0-137,0-205.5c0-4.1,0.4-7,1.2-8.8c3.8-8.9,16.5-8.8,20.6,0c0.7,1.5,1,3.6,1,6.4c0,72.5,0,144.9,0,217.4
		c0,10.5-4.9,13.8-14.8,13.8c-39.6,0-79.3,0-118.9,0c-10.7,0-12.5-7.5-12.5-16.9c0-24.4,0-48.9-0.1-73.3
		C628.7,515.3,628.5,515,628.2,515L628.2,515z"/>
</g>
</svg>
