<svg xmlns="http://www.w3.org/2000/svg" width="78.738" height="76.358" viewBox="0 0 78.738 76.358">
  <path id="Calendar-icon-SVG-049jvfd" d="M4.723,75.358A4.7,4.7,0,0,1,0,70.635V8.417A4.752,4.752,0,0,1,4.723,3.658H9.091V1.172a1.19,1.19,0,0,1,2.38,0V3.658h8.95V1.172A1.182,1.182,0,0,1,21.592,0a1.16,1.16,0,0,1,1.172,1.172V3.658h8.985V1.172A1.159,1.159,0,0,1,32.92,0a1.182,1.182,0,0,1,1.172,1.172V3.658h8.95V1.172a1.189,1.189,0,0,1,2.379,0V3.658h8.95V1.172A1.159,1.159,0,0,1,55.542,0a1.182,1.182,0,0,1,1.172,1.172V3.658h8.95V1.172a1.172,1.172,0,1,1,2.344,0V3.658h5.043a4.745,4.745,0,0,1,4.688,4.759V70.635a4.692,4.692,0,0,1-4.688,4.723Zm-2.38-4.723a2.4,2.4,0,0,0,2.38,2.38H73.049a2.4,2.4,0,0,0,2.344-2.38V17.223h-.568a1.189,1.189,0,1,1,0-2.379h.568V8.417a2.373,2.373,0,0,0-2.344-2.38H68.007V8.559a1.172,1.172,0,1,1-2.344,0V6.037h-8.95V8.559a1.182,1.182,0,0,1-1.172,1.172A1.159,1.159,0,0,1,54.37,8.559V6.037H45.42V8.559a1.189,1.189,0,0,1-2.379,0V6.037h-8.95V8.559A1.182,1.182,0,0,1,32.92,9.731a1.159,1.159,0,0,1-1.172-1.172V6.037H22.764V8.559a1.16,1.16,0,0,1-1.172,1.172A1.182,1.182,0,0,1,20.42,8.559V6.037H11.47V8.559a1.19,1.19,0,0,1-2.38,0V6.037H4.723a2.38,2.38,0,0,0-2.38,2.38v6.428h.6a1.189,1.189,0,0,1,0,2.379h-.6Zm54.689-9.02a2.32,2.32,0,0,1-2.344-2.345V52.808a2.319,2.319,0,0,1,2.344-2.344H63.46a2.349,2.349,0,0,1,2.38,2.344V59.27a2.35,2.35,0,0,1-2.38,2.345Zm0-2.345H63.5V52.808H57.032Zm-21.38,2.345a2.342,2.342,0,0,1-2.344-2.345V52.808a2.341,2.341,0,0,1,2.344-2.344h6.464a2.341,2.341,0,0,1,2.344,2.344V59.27a2.342,2.342,0,0,1-2.344,2.345Zm0-2.345h6.464V52.808H35.653ZM14.276,61.615a2.342,2.342,0,0,1-2.345-2.345V52.808a2.342,2.342,0,0,1,2.345-2.344h6.463a2.341,2.341,0,0,1,2.344,2.344V59.27a2.342,2.342,0,0,1-2.344,2.345Zm0-2.345h6.463V52.808H14.276ZM57.032,38.957a2.319,2.319,0,0,1-2.344-2.344V30.186a2.327,2.327,0,0,1,2.344-2.38H63.46a2.357,2.357,0,0,1,2.38,2.38v6.428a2.349,2.349,0,0,1-2.38,2.344Zm0-2.344H63.5V30.186H57.032Zm-21.38,2.344a2.341,2.341,0,0,1-2.344-2.344V30.186a2.349,2.349,0,0,1,2.344-2.38h6.464a2.349,2.349,0,0,1,2.344,2.38v6.428a2.341,2.341,0,0,1-2.344,2.344Zm0-2.344h6.464V30.186H35.653ZM14.276,38.957a2.342,2.342,0,0,1-2.345-2.344V30.186a2.35,2.35,0,0,1,2.345-2.38h6.463a2.349,2.349,0,0,1,2.344,2.38v6.428a2.341,2.341,0,0,1-2.344,2.344Zm0-2.344h6.463V30.186H14.276Zm51.138-19.39a1.189,1.189,0,1,1,0-2.379h3.515a1.189,1.189,0,0,1,0,2.379Zm-9.447,0a1.189,1.189,0,0,1,0-2.379h3.516a1.189,1.189,0,1,1,0,2.379Zm-9.446,0a1.189,1.189,0,0,1,0-2.379h3.551a1.189,1.189,0,0,1,0,2.379Zm-9.411,0a1.189,1.189,0,0,1,0-2.379h3.551a1.189,1.189,0,0,1,0,2.379Zm-9.41,0a1.207,1.207,0,0,1,0-2.415h3.516a1.208,1.208,0,0,1,0,2.415Zm-9.41,0a1.189,1.189,0,0,1,0-2.379H21.8a1.189,1.189,0,0,1,0,2.379Zm-9.412,0a1.207,1.207,0,1,1,0-2.415h3.515a1.208,1.208,0,0,1,0,2.415Z" transform="translate(0.5 0.5)" stroke="rgba(0,0,0,0)" stroke-miterlimit="10" stroke-width="1"/>
</svg>
