<?xml version="1.0" encoding="utf-8"?>
<!-- Generator: Adobe Illustrator 25.0.0, SVG Export Plug-In . SVG Version: 6.00 Build 0)  -->
<svg version="1.1" id="Layer_1" xmlns="http://www.w3.org/2000/svg" xmlns:xlink="http://www.w3.org/1999/xlink" x="0px" y="0px"
	 viewBox="0 0 1209 805" style="enable-background:new 0 0 1209 805;" xml:space="preserve">
<g>
	<path d="M603.4,108.1c-122.9,85.4-245.9,170.8-369,256c-5.6,4-9.9,6.3-12.6,7.1c-16.3,4.6-29.7-13.8-20.6-28c1.5-2.3,4.3-5,8.6-8
		c126.7-88.1,253.5-175.9,380.2-263.8c9.6-6.6,17.1-7.6,26.5-1c127.4,88.2,254.7,176.6,381.9,265c4.1,3,7,5.5,8.5,7.8
		c9.6,14.9-3.6,30.8-19.9,28.7c-2.7-0.3-6.5-2.3-11.4-5.8c-123.5-86.2-247.2-172.1-370.8-258C604.4,107.9,603.9,107.9,603.4,108.1z"
		/>
	<path d="M643.9,589h-79.6c-0.5,0-0.8,0.3-0.8,0.8c0,40.3,0,80.4,0,120.7c0,20.2-3.8,28.9-24.9,28.9c-65.8,0-131.5,0-197.3,0
		c-15.6,0-20.4-10.3-20.4-24.4c0-119.2,0-238.3,0-357.5c0-5.8,0.8-10.1,2.3-13.1c7.3-14.1,28.2-12.9,34,2c1,2.5,1.5,6.3,1.5,11.3
		c0,114.4,0,228.7,0,343.1c0,0.5,0.3,0.8,0.8,0.8l0,0H525c0.3,0,0.8-0.3,0.8-0.8c0.2-42,0.2-83.9,0-125.7c0-17.6,6.8-23.9,23.9-23.9
		c35.8,0,71.8,0,107.6,0c17.2,0,25.2,5.1,25.2,22.7c0,42.3,0,84.6,0,126.9c0,0.5,0.3,0.8,0.8,0.8l0,0h165.5c0.5,0,0.8-0.3,0.8-0.8
		c0-113.6,0-227.2,0-340.8c0-6.8,0.7-11.6,2-14.6c6.3-14.8,27.4-14.6,34.2,0c1.2,2.5,1.7,6,1.7,10.6c0,120.2,0,240.3,0,360.5
		c0,17.4-8.1,22.9-24.5,22.9c-65.7,0-131.5,0-197.2,0c-17.7,0-20.7-12.4-20.7-28c0-40.5,0-81.1-0.2-121.5
		C644.7,589.5,644.4,589,643.9,589L643.9,589z"/>
</g>
</svg>
