<?xml version="1.0" encoding="UTF-8" standalone="no"?>
<!DOCTYPE svg PUBLIC "-//W3C//DTD SVG 1.1//EN" "http://www.w3.org/Graphics/SVG/1.1/DTD/svg11.dtd">
<svg xmlns="http://www.w3.org/2000/svg" version="1.1" viewBox="0 0 512 512">
<g>
<path fill="#000000" d="
  M 214.94 122.87
  A 92.07 92.07 0.0 0 1 122.87 214.94
  A 92.07 92.07 0.0 0 1 30.80 122.87
  A 92.07 92.07 0.0 0 1 122.87 30.80
  A 92.07 92.07 0.0 0 1 214.94 122.87
  Z
  M 194.56 122.87
  A 71.68 71.68 0.0 0 0 122.88 51.19
  A 71.68 71.68 0.0 0 0 51.20 122.87
  A 71.68 71.68 0.0 0 0 122.88 194.55
  A 71.68 71.68 0.0 0 0 194.56 122.87
  Z"
/>
<path fill="#000000" d="
  M 471.1248 194.3270
  A 10.29 10.29 0.0 0 1 460.8528 204.6349
  L 317.6730 204.8848
  A 10.29 10.29 0.0 0 1 307.3651 194.6128
  L 307.1152 51.4330
  A 10.29 10.29 0.0 0 1 317.3872 41.1251
  L 460.5670 40.8752
  A 10.29 10.29 0.0 0 1 470.8749 51.1472
  L 471.1248 194.3270
  Z
  M 450.50 61.89
  A 0.39 0.39 0.0 0 0 450.11 61.50
  L 328.13 61.50
  A 0.39 0.39 0.0 0 0 327.74 61.89
  L 327.74 183.85
  A 0.39 0.39 0.0 0 0 328.13 184.24
  L 450.11 184.24
  A 0.39 0.39 0.0 0 0 450.50 183.85
  L 450.50 61.89
  Z"
/>
<path fill="#000000" d="
  M 301.69 406.81
  C 295.71 402.22 296.59 397.99 298.74 391.02
  Q 313.75 342.28 328.80 293.56
  C 330.43 288.30 335.50 286.77 340.94 286.76
  Q 388.85 286.74 436.76 286.76
  C 442.47 286.76 447.69 287.98 449.42 293.57
  Q 464.72 342.99 479.94 392.44
  C 481.67 398.07 481.93 402.80 477.19 406.43
  Q 436.32 437.70 395.42 468.91
  Q 388.97 473.82 381.89 468.39
  Q 341.77 437.62 301.69 406.81
  Z
  M 319.51 394.73
  L 388.82 447.68
  A 0.56 0.51 44.0 0 0 389.45 447.70
  L 458.45 394.95
  A 1.47 1.29 64.1 0 0 458.87 393.42
  L 432.40 307.82
  A 0.81 0.63 79.1 0 0 431.75 307.25
  L 346.50 307.25
  A 0.82 0.63 -79.2 0 0 345.85 307.83
  L 319.27 393.76
  A 0.94 0.79 -64.1 0 0 319.51 394.73
  Z"
/>
<path fill="#000000" d="
  M 40.50 460.75
  C 35.15 460.75 30.78 455.85 30.72 450.68
  Q 30.69 447.97 33.07 443.80
  Q 71.96 375.66 110.88 307.52
  Q 115.02 300.27 117.81 298.42
  C 123.34 294.75 129.46 298.03 132.54 303.40
  Q 172.03 372.47 211.48 441.53
  Q 214.64 447.07 214.85 450.31
  C 215.32 457.40 209.62 460.76 203.11 460.75
  Q 121.81 460.75 40.50 460.75
  Z
  M 58.96 439.76
  A 0.33 0.33 17.1 0 0 59.25 440.25
  L 186.55 440.25
  A 0.33 0.33 -14.4 0 0 186.84 439.76
  L 123.19 328.34
  A 0.33 0.33 45.4 0 0 122.61 328.34
  L 58.96 439.76
  Z"
/>
</g>
</svg>
