<?xml version="1.0" encoding="UTF-8" standalone="no"?>
<!DOCTYPE svg PUBLIC "-//W3C//DTD SVG 1.1//EN" "http://www.w3.org/Graphics/SVG/1.1/DTD/svg11.dtd">
<svg xmlns="http://www.w3.org/2000/svg" version="1.1" viewBox="0 0 1209 805">
<g stroke-width="2.00" fill="none" stroke-linecap="butt">
<path stroke="#808080" vector-effect="non-scaling-stroke" d="
  M 604.66 225.03
  Q 716.54 302.68 828.30 380.50
  Q 832.89 383.70 835.23 384.00
  C 845.04 385.29 852.96 375.66 847.20 366.71
  Q 845.88 364.67 842.07 362.03
  Q 726.95 282.07 611.76 202.21
  C 606.06 198.26 601.56 198.87 595.80 202.86
  Q 481.11 282.38 366.48 362.00
  Q 362.62 364.67 361.28 366.78
  C 355.75 375.45 363.83 386.49 373.67 383.71
  Q 376.19 382.99 381.32 379.44
  Q 492.59 302.24 603.84 225.03
  A 0.73 0.73 -0.0 0 1 604.66 225.03"
/>
<path stroke="#808080" vector-effect="non-scaling-stroke" d="
  M 628.69 515.57
  Q 628.79 552.22 628.75 588.87
  C 628.74 598.25 630.57 605.75 641.25 605.75
  Q 700.69 605.77 760.14 605.73
  C 770.12 605.73 774.99 602.42 774.99 591.88
  Q 775.01 483.19 774.99 374.51
  Q 774.99 370.37 773.98 368.16
  C 769.93 359.37 757.21 359.25 753.40 368.18
  Q 752.24 370.88 752.24 377.00
  Q 752.27 479.70 752.23 582.45
  A 0.55 0.48 -90.0 0 1 751.75 583.00
  L 652.00 583.00
  A 0.51 0.50 90.0 0 1 651.50 582.49
  Q 651.49 544.25 651.51 505.99
  C 651.52 495.41 646.77 492.27 636.34 492.26
  Q 603.89 492.24 571.43 492.25
  C 561.10 492.25 556.98 496.02 556.99 506.65
  Q 557.04 544.52 556.95 582.46
  A 0.54 0.45 -90.0 0 1 556.50 583.00
  L 456.75 583.00
  A 0.55 0.48 90.0 0 1 456.27 582.45
  Q 456.24 478.99 456.25 375.53
  Q 456.25 370.96 455.37 368.71
  C 451.84 359.74 439.29 358.94 434.86 367.49
  Q 433.50 370.13 433.50 375.39
  Q 433.50 483.20 433.49 591.01
  C 433.49 599.49 436.32 605.74 445.76 605.74
  Q 505.23 605.76 564.71 605.74
  C 577.40 605.74 579.76 600.48 579.75 588.31
  Q 579.73 551.95 579.78 515.55
  A 0.55 0.47 -90.0 0 1 580.25 515.00
  L 628.25 515.00
  A 0.57 0.44 90.0 0 1 628.69 515.57"
/>
</g>
<path fill="#ffffff" d="
  M 0.00 0.00
  L 1209.00 0.00
  L 1209.00 805.00
  L 0.00 805.00
  L 0.00 0.00
  Z
  M 604.66 225.03
  Q 716.54 302.68 828.30 380.50
  Q 832.89 383.70 835.23 384.00
  C 845.04 385.29 852.96 375.66 847.20 366.71
  Q 845.88 364.67 842.07 362.03
  Q 726.95 282.07 611.76 202.21
  C 606.06 198.26 601.56 198.87 595.80 202.86
  Q 481.11 282.38 366.48 362.00
  Q 362.62 364.67 361.28 366.78
  C 355.75 375.45 363.83 386.49 373.67 383.71
  Q 376.19 382.99 381.32 379.44
  Q 492.59 302.24 603.84 225.03
  A 0.73 0.73 -0.0 0 1 604.66 225.03
  Z
  M 628.69 515.57
  Q 628.79 552.22 628.75 588.87
  C 628.74 598.25 630.57 605.75 641.25 605.75
  Q 700.69 605.77 760.14 605.73
  C 770.12 605.73 774.99 602.42 774.99 591.88
  Q 775.01 483.19 774.99 374.51
  Q 774.99 370.37 773.98 368.16
  C 769.93 359.37 757.21 359.25 753.40 368.18
  Q 752.24 370.88 752.24 377.00
  Q 752.27 479.70 752.23 582.45
  A 0.55 0.48 -90.0 0 1 751.75 583.00
  L 652.00 583.00
  A 0.51 0.50 90.0 0 1 651.50 582.49
  Q 651.49 544.25 651.51 505.99
  C 651.52 495.41 646.77 492.27 636.34 492.26
  Q 603.89 492.24 571.43 492.25
  C 561.10 492.25 556.98 496.02 556.99 506.65
  Q 557.04 544.52 556.95 582.46
  A 0.54 0.45 -90.0 0 1 556.50 583.00
  L 456.75 583.00
  A 0.55 0.48 90.0 0 1 456.27 582.45
  Q 456.24 478.99 456.25 375.53
  Q 456.25 370.96 455.37 368.71
  C 451.84 359.74 439.29 358.94 434.86 367.49
  Q 433.50 370.13 433.50 375.39
  Q 433.50 483.20 433.49 591.01
  C 433.49 599.49 436.32 605.74 445.76 605.74
  Q 505.23 605.76 564.71 605.74
  C 577.40 605.74 579.76 600.48 579.75 588.31
  Q 579.73 551.95 579.78 515.55
  A 0.55 0.47 -90.0 0 1 580.25 515.00
  L 628.25 515.00
  A 0.57 0.44 90.0 0 1 628.69 515.57
  Z"
/>
<g>
<path fill="#000000" d="
  M 603.84 225.03
  Q 492.59 302.24 381.32 379.44
  Q 376.19 382.99 373.67 383.71
  C 363.83 386.49 355.75 375.45 361.28 366.78
  Q 362.62 364.67 366.48 362.00
  Q 481.11 282.38 595.80 202.86
  C 601.56 198.87 606.06 198.26 611.76 202.21
  Q 726.95 282.07 842.07 362.03
  Q 845.88 364.67 847.20 366.71
  C 852.96 375.66 845.04 385.29 835.23 384.00
  Q 832.89 383.70 828.30 380.50
  Q 716.54 302.68 604.66 225.03
  A 0.73 0.73 90.0 0 0 603.84 225.03
  Z"
/>
<path fill="#000000" d="
  M 628.25 515.00
  L 580.25 515.00
  A 0.55 0.47 -90.0 0 0 579.78 515.55
  Q 579.73 551.95 579.75 588.31
  C 579.76 600.48 577.40 605.74 564.71 605.74
  Q 505.23 605.76 445.76 605.74
  C 436.32 605.74 433.49 599.49 433.49 591.01
  Q 433.50 483.20 433.50 375.39
  Q 433.50 370.13 434.86 367.49
  C 439.29 358.94 451.84 359.74 455.37 368.71
  Q 456.25 370.96 456.25 375.53
  Q 456.24 478.99 456.27 582.45
  A 0.55 0.48 -90.0 0 0 456.75 583.00
  L 556.50 583.00
  A 0.54 0.45 -90.0 0 0 556.95 582.46
  Q 557.04 544.52 556.99 506.65
  C 556.98 496.02 561.10 492.25 571.43 492.25
  Q 603.89 492.24 636.34 492.26
  C 646.77 492.27 651.52 495.41 651.51 505.99
  Q 651.49 544.25 651.50 582.49
  A 0.51 0.50 90.0 0 0 652.00 583.00
  L 751.75 583.00
  A 0.55 0.48 90.0 0 0 752.23 582.45
  Q 752.27 479.70 752.24 377.00
  Q 752.24 370.88 753.40 368.18
  C 757.21 359.25 769.93 359.37 773.98 368.16
  Q 774.99 370.37 774.99 374.51
  Q 775.01 483.19 774.99 591.88
  C 774.99 602.42 770.12 605.73 760.14 605.73
  Q 700.69 605.77 641.25 605.75
  C 630.57 605.75 628.74 598.25 628.75 588.87
  Q 628.79 552.22 628.69 515.57
  A 0.57 0.44 90.0 0 0 628.25 515.00
  Z"
/>
</g>
</svg>
