<?xml version="1.0" encoding="utf-8"?>
<!-- Generator: Adobe Illustrator 25.0.0, SVG Export Plug-In . SVG Version: 6.00 Build 0)  -->
<svg version="1.1" id="Layer_1" xmlns="http://www.w3.org/2000/svg" xmlns:xlink="http://www.w3.org/1999/xlink" x="0px" y="0px"
	 viewBox="0 0 1209 805" style="enable-background:new 0 0 1209 805;" xml:space="preserve">
<style type="text/css">
	.st0{fill:none;stroke:#808080;stroke-width:2;}
</style>
<g>
	<path vector-effect="non-scaling-stroke" class="st0" d="M604.7,225c74.6,51.8,149.1,103.6,223.6,155.5c3.1,2.1,5.4,3.3,6.9,3.5
		c9.8,1.3,17.7-8.3,12-17.3c-0.9-1.4-2.6-2.9-5.1-4.7c-76.7-53.3-153.5-106.6-230.3-159.8c-5.7-4-10.2-3.3-16,0.6
		c-76.5,53-152.9,106.1-229.3,159.1c-2.6,1.8-4.3,3.4-5.2,4.8c-5.5,8.7,2.5,19.7,12.4,16.9c1.7-0.5,4.2-1.9,7.6-4.3
		C455.5,328,529.7,276.5,603.8,225C604.1,224.9,604.4,224.9,604.7,225"/>
	<path vector-effect="non-scaling-stroke" class="st0" d="M628.7,515.6c0.1,24.4,0.1,48.9,0.1,73.3c0,9.4,1.8,16.9,12.5,16.9
		c39.6,0,79.3,0,118.9,0c10,0,14.8-3.3,14.8-13.8c0-72.5,0-144.9,0-217.4c0-2.8-0.3-4.9-1-6.4c-4-8.8-16.8-8.9-20.6,0
		c-0.8,1.8-1.2,4.7-1.2,8.8c0,68.5,0,137,0,205.5c0,0.3-0.2,0.5-0.5,0.5H652c-0.3,0-0.5-0.2-0.5-0.5l0,0c0-25.5,0-51,0-76.5
		c0-10.6-4.7-13.7-15.2-13.7c-21.6,0-43.3,0-64.9,0c-10.3,0-14.5,3.8-14.4,14.4c0,25.2,0,50.5,0,75.8c0,0.3-0.2,0.5-0.5,0.5h-99.8
		c-0.3,0-0.5-0.2-0.5-0.5l0,0c0-69,0-137.9,0-206.9c0-3-0.3-5.3-0.9-6.8c-3.5-9-16.1-9.8-20.5-1.2c-0.9,1.8-1.4,4.4-1.4,7.9
		c0,71.9,0,143.7,0,215.6c0,8.5,2.8,14.7,12.3,14.7c39.6,0,79.3,0,119,0c12.7,0,15-5.3,15-17.4c0-24.2,0-48.5,0-72.8
		c0-0.3,0.2-0.5,0.5-0.5h48C628.5,515,628.7,515.3,628.7,515.6L628.7,515.6"/>
</g>
<g>
	<path d="M603.8,225C529.7,276.5,455.5,328,381.3,379.4c-3.4,2.4-6,3.8-7.6,4.3c-9.8,2.8-17.9-8.3-12.4-16.9c0.9-1.4,2.6-3,5.2-4.8
		c76.4-53.1,152.9-106.1,229.3-159.1c5.8-4,10.3-4.6,16-0.6c76.8,53.2,153.6,106.5,230.3,159.8c2.5,1.8,4.2,3.3,5.1,4.7
		c5.8,9-2.2,18.6-12,17.3c-1.6-0.2-3.9-1.4-6.9-3.5C753.8,328.6,679.2,276.8,604.7,225C604.4,224.9,604.1,224.9,603.8,225z"/>
	<path d="M628.2,515h-48c-0.3,0-0.5,0.2-0.5,0.5c0,24.3,0,48.5,0,72.8c0,12.2-2.3,17.4-15,17.4c-39.7,0-79.3,0-119,0
		c-9.4,0-12.3-6.2-12.3-14.7c0-71.9,0-143.7,0-215.6c0-3.5,0.5-6.1,1.4-7.9c4.4-8.5,17-7.8,20.5,1.2c0.6,1.5,0.9,3.8,0.9,6.8
		c0,69,0,137.9,0,206.9c0,0.3,0.2,0.5,0.5,0.5l0,0h99.8c0.2,0,0.5-0.2,0.5-0.5c0.1-25.3,0.1-50.6,0-75.8c0-10.6,4.1-14.4,14.4-14.4
		c21.6,0,43.3,0,64.9,0c10.4,0,15.2,3.1,15.2,13.7c0,25.5,0,51,0,76.5c0,0.3,0.2,0.5,0.5,0.5l0,0h99.8c0.3,0,0.5-0.2,0.5-0.5
		c0-68.5,0-137,0-205.5c0-4.1,0.4-7,1.2-8.8c3.8-8.9,16.5-8.8,20.6,0c0.7,1.5,1,3.6,1,6.4c0,72.5,0,144.9,0,217.4
		c0,10.5-4.9,13.8-14.8,13.8c-39.6,0-79.3,0-118.9,0c-10.7,0-12.5-7.5-12.5-16.9c0-24.4,0-48.9-0.1-73.3
		C628.7,515.3,628.5,515,628.2,515L628.2,515z"/>
</g>
</svg>
